<?xml version="1.0" encoding="UTF-8" standalone="no"?>
<!-- Created with Inkscape (http://www.inkscape.org/) -->

<svg
   xmlns:ns1="http://wanglongqi.github.io/WriteTeX"
   xmlns:dc="http://purl.org/dc/elements/1.1/"
   xmlns:cc="http://creativecommons.org/ns#"
   xmlns:rdf="http://www.w3.org/1999/02/22-rdf-syntax-ns#"
   xmlns:svg="http://www.w3.org/2000/svg"
   xmlns="http://www.w3.org/2000/svg"
   xmlns:sodipodi="http://sodipodi.sourceforge.net/DTD/sodipodi-0.dtd"
   xmlns:inkscape="http://www.inkscape.org/namespaces/inkscape"
   width="300mm"
   height="125mm"
   viewBox="0 0 300 125"
   version="1.1"
   id="svg8"
   inkscape:version="0.92.3 (2405546, 2018-03-11)"
   sodipodi:docname="Plate-Hole.svg">
  <sodipodi:namedview
     id="base"
     pagecolor="#ffffff"
     bordercolor="#666666"
     borderopacity="1.0"
     inkscape:pageopacity="0.0"
     inkscape:pageshadow="2"
     inkscape:zoom="0.35"
     inkscape:cx="-77.142857"
     inkscape:cy="560"
     inkscape:document-units="mm"
     inkscape:current-layer="layer1"
     showgrid="false"
     inkscape:snap-object-midpoints="true"
     inkscape:window-width="1920"
     inkscape:window-height="986"
     inkscape:window-x="-11"
     inkscape:window-y="-11"
     inkscape:window-maximized="1" />
  <defs
     id="defs2">
    <marker
       inkscape:stockid="Arrow1Mend"
       orient="auto"
       refY="0"
       refX="0"
       id="marker4224"
       style="overflow:visible"
       inkscape:isstock="true">
      <path
         inkscape:connector-curvature="0"
         id="path4222"
         d="M 0,0 5,-5 -12.5,0 5,5 Z"
         style="fill:#000000;fill-opacity:1;fill-rule:evenodd;stroke:#000000;stroke-width:1.00000003pt;stroke-opacity:1"
         transform="matrix(-0.4,0,0,-0.4,-4,0)" />
    </marker>
    <marker
       inkscape:stockid="Arrow1Mend"
       orient="auto"
       refY="0"
       refX="0"
       id="marker2006"
       style="overflow:visible"
       inkscape:isstock="true">
      <path
         inkscape:connector-curvature="0"
         id="path2004"
         d="M 0,0 5,-5 -12.5,0 5,5 Z"
         style="fill:#000000;fill-opacity:1;fill-rule:evenodd;stroke:#000000;stroke-width:1.00000003pt;stroke-opacity:1"
         transform="matrix(-0.4,0,0,-0.4,-4,0)" />
    </marker>
    <marker
       inkscape:collect="always"
       inkscape:isstock="true"
       style="overflow:visible"
       id="marker1714"
       refX="0"
       refY="0"
       orient="auto"
       inkscape:stockid="Arrow1Mend">
      <path
         transform="matrix(-0.4,0,0,-0.4,-4,0)"
         style="fill:#000000;fill-opacity:1;fill-rule:evenodd;stroke:#000000;stroke-width:1.00000003pt;stroke-opacity:1"
         d="M 0,0 5,-5 -12.5,0 5,5 Z"
         id="path1712"
         inkscape:connector-curvature="0" />
    </marker>
    <marker
       inkscape:collect="always"
       inkscape:stockid="Arrow1Mend"
       orient="auto"
       refY="0"
       refX="0"
       id="marker1462"
       style="overflow:visible"
       inkscape:isstock="true">
      <path
         inkscape:connector-curvature="0"
         id="path1460"
         d="M 0,0 5,-5 -12.5,0 5,5 Z"
         style="fill:#000000;fill-opacity:1;fill-rule:evenodd;stroke:#000000;stroke-width:1.00000003pt;stroke-opacity:1"
         transform="matrix(-0.4,0,0,-0.4,-4,0)" />
    </marker>
    <marker
       inkscape:collect="always"
       inkscape:isstock="true"
       style="overflow:visible"
       id="marker2840"
       refX="0"
       refY="0"
       orient="auto"
       inkscape:stockid="Arrow1Mend">
      <path
         transform="matrix(-0.4,0,0,-0.4,-4,0)"
         style="fill:#000000;fill-opacity:1;fill-rule:evenodd;stroke:#000000;stroke-width:1.00000003pt;stroke-opacity:1"
         d="M 0,0 5,-5 -12.5,0 5,5 Z"
         id="path2838"
         inkscape:connector-curvature="0" />
    </marker>
  </defs>
  <metadata
     id="metadata5">
    <rdf:RDF>
      <cc:Work
         rdf:about="">
        <dc:format>image/svg+xml</dc:format>
        <dc:type
           rdf:resource="http://purl.org/dc/dcmitype/StillImage" />
        <dc:title></dc:title>
      </cc:Work>
    </rdf:RDF>
  </metadata>
  <g
     transform="translate(0,-172)"
     id="layer1"
     inkscape:groupmode="layer"
     inkscape:label="Layer 1">
    <rect
       y="197.97023"
       x="68.338142"
       height="78.619049"
       width="168.57739"
       id="rect10"
       style="opacity:1;fill:none;fill-opacity:1;fill-rule:nonzero;stroke:#000000;stroke-width:2;stroke-miterlimit:4;stroke-dasharray:none;stroke-dashoffset:0;stroke-opacity:1" />
    <circle
       r="20.032738"
       cy="237.27975"
       cx="152.62645"
       id="path12"
       style="opacity:1;vector-effect:none;fill:none;fill-opacity:1;fill-rule:evenodd;stroke:#000000;stroke-width:2;stroke-linecap:butt;stroke-linejoin:miter;stroke-miterlimit:4;stroke-dasharray:none;stroke-dashoffset:0;stroke-opacity:1" />
    <path
       inkscape:connector-curvature="0"
       id="path2836"
       d="m 235.5963,213.33269 h 29.57096"
       style="fill:none;fill-rule:evenodd;stroke:#000000;stroke-width:2;stroke-linecap:butt;stroke-linejoin:miter;stroke-miterlimit:4;stroke-dasharray:none;stroke-opacity:1;marker-end:url(#marker2840)" />
    <path
       style="fill:none;fill-rule:evenodd;stroke:#000000;stroke-width:2;stroke-linecap:butt;stroke-linejoin:miter;stroke-miterlimit:4;stroke-dasharray:none;stroke-opacity:1;marker-end:url(#marker1462)"
       d="m 235.5963,232.91198 h 29.57096"
       id="path1458"
       inkscape:connector-curvature="0" />
    <path
       inkscape:connector-curvature="0"
       id="path1710"
       d="m 235.5963,256.19545 h 29.57096"
       style="fill:none;fill-rule:evenodd;stroke:#000000;stroke-width:2;stroke-linecap:butt;stroke-linejoin:miter;stroke-miterlimit:4;stroke-dasharray:none;stroke-opacity:1;marker-end:url(#marker1714)" />
    <path
       style="fill:none;fill-rule:evenodd;stroke:#000000;stroke-width:2;stroke-linecap:butt;stroke-linejoin:miter;stroke-miterlimit:4;stroke-dasharray:none;stroke-opacity:1;marker-end:url(#marker2006)"
       d="M 68.55338,213.33269 H 38.982588"
       id="path1998"
       inkscape:connector-curvature="0" />
    <path
       inkscape:connector-curvature="0"
       id="path2000"
       d="M 68.55338,232.91198 H 38.982588"
       style="fill:none;fill-rule:evenodd;stroke:#000000;stroke-width:2;stroke-linecap:butt;stroke-linejoin:miter;stroke-miterlimit:4;stroke-dasharray:none;stroke-opacity:1;marker-end:url(#marker1462)" />
    <path
       style="fill:none;fill-rule:evenodd;stroke:#000000;stroke-width:2;stroke-linecap:butt;stroke-linejoin:miter;stroke-miterlimit:4;stroke-dasharray:none;stroke-opacity:1;marker-end:url(#marker4224)"
       d="M 68.55338,256.19545 H 38.982588"
       id="path2002"
       inkscape:connector-curvature="0" />
    <g
       id="g4546"
       transform="matrix(2.6391753,0,0,2.6391753,-194.37026,-48.084185)"
       ns1:text="$S$">
      <g
         id="surface1">
        <g
           id="g4543"
           style="fill:#000000;fill-opacity:1">
          <path
             id="path4541"
             transform="translate(178.585,110.99)"
             d="m 6.59375,-7.09375 c 0,-0.03125 -0.1875,-0.265625 -0.28125,-0.265625 -0.046875,0 -0.1875,0.0625 -0.296875,0.203125 L 5.6875,-6.765625 C 5.515625,-7.0625 4.890625,-7.359375 4.234375,-7.359375 c -1.265625,0 -2.640625,1.3125 -2.640625,2.53125 0,0.796875 0.703125,1.421875 1.21875,1.5625 l 1.0625,0.28125 c 0.375,0.09375 0.734375,0.078125 0.734375,0.90625 0,0.890625 -0.625,1.65625 -1.609375,1.65625 -0.640625,0 -1.578125,-0.046875 -1.578125,-1.28125 C 1.421875,-1.9375 1.46875,-2.1875 1.484375,-2.25 1.5,-2.28125 1.5,-2.296875 1.5,-2.3125 c 0,-0.09375 -0.234375,-0.28125 -0.28125,-0.28125 -0.046875,0 -0.203125,0.0625 -0.234375,0.09375 -0.03125,0.03125 -0.640625,2.4375 -0.640625,2.453125 0,0.0625 0.21875,0.265625 0.28125,0.265625 0.046875,0 0.1875,-0.0625 0.296875,-0.203125 L 1.28125,-0.390625 C 1.59375,0.03125 2.40625,0.21875 2.984375,0.21875 4.34375,0.21875 5.6875,-1.265625 5.6875,-2.5 c 0,-0.6875 -0.390625,-1.15625 -0.546875,-1.28125 -0.21875,-0.234375 -0.5,-0.328125 -1.375,-0.5625 C 3.53125,-4.390625 3.1875,-4.5 3.09375,-4.515625 2.828125,-4.609375 2.65625,-4.71875 2.65625,-5.25 c 0,-0.8125 0.625,-1.5 1.578125,-1.5 0.8125,0 1.25,0.265625 1.25,1.390625 0,0.3125 -0.046875,0.5 -0.046875,0.546875 0,0.015625 0.1875,0.265625 0.296875,0.265625 0.109375,0 0.28125,-0.1875 0.328125,-0.359375 z m 0,0"
             style="stroke:none"
             inkscape:connector-curvature="0" />
        </g>
      </g>
    </g>
    <g
       ns1:text="$S$"
       transform="matrix(2.6391753,0,0,2.6391753,-459.4827,-49.59609)"
       id="g4581">
      <g
         id="g4579">
        <g
           style="fill:#000000;fill-opacity:1"
           id="g4577">
          <path
             inkscape:connector-curvature="0"
             style="stroke:none"
             d="m 6.59375,-7.09375 c 0,-0.03125 -0.1875,-0.265625 -0.28125,-0.265625 -0.046875,0 -0.1875,0.0625 -0.296875,0.203125 L 5.6875,-6.765625 C 5.515625,-7.0625 4.890625,-7.359375 4.234375,-7.359375 c -1.265625,0 -2.640625,1.3125 -2.640625,2.53125 0,0.796875 0.703125,1.421875 1.21875,1.5625 l 1.0625,0.28125 c 0.375,0.09375 0.734375,0.078125 0.734375,0.90625 0,0.890625 -0.625,1.65625 -1.609375,1.65625 -0.640625,0 -1.578125,-0.046875 -1.578125,-1.28125 C 1.421875,-1.9375 1.46875,-2.1875 1.484375,-2.25 1.5,-2.28125 1.5,-2.296875 1.5,-2.3125 c 0,-0.09375 -0.234375,-0.28125 -0.28125,-0.28125 -0.046875,0 -0.203125,0.0625 -0.234375,0.09375 -0.03125,0.03125 -0.640625,2.4375 -0.640625,2.453125 0,0.0625 0.21875,0.265625 0.28125,0.265625 0.046875,0 0.1875,-0.0625 0.296875,-0.203125 L 1.28125,-0.390625 C 1.59375,0.03125 2.40625,0.21875 2.984375,0.21875 4.34375,0.21875 5.6875,-1.265625 5.6875,-2.5 c 0,-0.6875 -0.390625,-1.15625 -0.546875,-1.28125 -0.21875,-0.234375 -0.5,-0.328125 -1.375,-0.5625 C 3.53125,-4.390625 3.1875,-4.5 3.09375,-4.515625 2.828125,-4.609375 2.65625,-4.71875 2.65625,-5.25 c 0,-0.8125 0.625,-1.5 1.578125,-1.5 0.8125,0 1.25,0.265625 1.25,1.390625 0,0.3125 -0.046875,0.5 -0.046875,0.546875 0,0.015625 0.1875,0.265625 0.296875,0.265625 0.109375,0 0.28125,-0.1875 0.328125,-0.359375 z m 0,0"
             transform="translate(178.585,110.99)"
             id="path4575" />
        </g>
      </g>
    </g>
  </g>
</svg>
